<svg width="400" height="400" viewBox="0 0 400 400" fill="none" xmlns="http://www.w3.org/2000/svg">
  <defs>
    <style>
      .node {
        fill: #535C91;
        stroke: #3DC2EC;
        stroke-width: 2;
      }
      .text {
        fill: #EEEEEE;
        font-family: Arial, sans-serif;
        font-size: 14px;
        text-anchor: middle;
        alignment-baseline: middle;
      }
      .line {
        stroke: #3DC2EC;
        stroke-width: 2;
      }
    </style>
  </defs>
  <!-- Lines connecting nodes -->
  <line x1="200" y1="50" x2="100" y2="150" class="line" />
  <line x1="200" y1="50" x2="300" y2="150" class="line" />
  <line x1="100" y1="150" x2="50" y2="250" class="line" />
  <line x1="100" y1="150" x2="150" y2="250" class="line" />
  <line x1="300" y1="150" x2="250" y2="250" class="line" />
  <line x1="300" y1="150" x2="350" y2="250" class="line" />

  <!-- Nodes -->
  <circle cx="200" cy="50" r="20" class="node" />
  <circle cx="100" cy="150" r="20" class="node" />
  <circle cx="300" cy="150" r="20" class="node" />
  <circle cx="50" cy="250" r="20" class="node" />
  <circle cx="150" cy="250" r="20" class="node" />
  <circle cx="250" cy="250" r="20" class="node" />
  <circle cx="350" cy="250" r="20" class="node" />

  <!-- Text inside nodes -->
  <text x="200" y="50" class="text">50</text>
  <text x="100" y="150" class="text">30</text>
  <text x="300" y="150" class="text">70</text>
  <text x="50" y="250" class="text">20</text>
  <text x="150" y="250" class="text">40</text>
  <text x="250" y="250" class="text">60</text>
  <text x="350" y="250" class="text">80</text>
</svg>
